<svg width="301" height="301" viewBox="0 0 301 301" fill="none" xmlns="http://www.w3.org/2000/svg">
<path d="M282.464 153.874C282.464 144.124 281.589 134.749 279.964 125.749H150.464V178.937H224.464C221.277 196.124 211.589 210.687 197.027 220.437V254.937H241.464C267.464 230.999 282.464 195.749 282.464 153.874V153.874Z" fill="#fff"/>
<path d="M150.464 288.249C187.589 288.249 218.714 275.937 241.464 254.937L197.027 220.437C184.714 228.687 168.964 233.562 150.464 233.562C114.652 233.562 84.3394 209.374 73.5269 176.874H27.5894V212.499C50.2144 257.437 96.7144 288.249 150.464 288.249Z" fill="#fff"/>
<path d="M73.5269 176.874C70.7769 168.624 69.2144 159.812 69.2144 150.749C69.2144 141.687 70.7769 132.874 73.5269 124.624V88.9991H27.5894C17.9644 108.16 12.9559 129.307 12.9644 150.749C12.9644 172.937 18.2769 193.937 27.5894 212.499L73.5269 176.874V176.874Z" fill="#fff"/>
<path d="M150.464 67.9366C170.652 67.9366 188.777 74.8741 203.027 88.4991L242.464 49.0616C218.652 26.8741 187.527 13.2491 150.464 13.2491C96.7144 13.2491 50.2144 44.0616 27.5894 88.9991L73.5269 124.624C84.3394 92.1241 114.652 67.9366 150.464 67.9366Z" fill="#fff"/>
</svg>
