<svg width="24" height="24" viewBox="0 0 24 24" fill="none" xmlns="http://www.w3.org/2000/svg">
<path d="M8.675 7.725C8.85833 7.94167 8.95 8.18767 8.95 8.463C8.95 8.73767 8.85833 8.96667 8.675 9.15L6.825 11H14C14.2833 11 14.5207 11.096 14.712 11.288C14.904 11.4793 15 11.7167 15 12C15 12.2833 14.904 12.521 14.712 12.713C14.5207 12.9043 14.2833 13 14 13H6.825L8.675 14.85C8.875 15.05 8.975 15.2873 8.975 15.562C8.975 15.8373 8.875 16.075 8.675 16.275C8.49167 16.475 8.26233 16.575 7.987 16.575C7.71233 16.575 7.48333 16.4833 7.3 16.3L3.7 12.7C3.6 12.6 3.529 12.4917 3.487 12.375C3.44567 12.2583 3.425 12.1333 3.425 12C3.425 11.8667 3.44567 11.7417 3.487 11.625C3.529 11.5083 3.6 11.4 3.7 11.3L7.3 7.7C7.51667 7.48333 7.754 7.38767 8.012 7.413C8.27067 7.43767 8.49167 7.54167 8.675 7.725V7.725ZM19 3C19.55 3 20.021 3.19567 20.413 3.587C20.8043 3.979 21 4.45 21 5V19C21 19.55 20.8043 20.021 20.413 20.413C20.021 20.8043 19.55 21 19 21H13C12.7167 21 12.479 20.9043 12.287 20.713C12.0957 20.521 12 20.2833 12 20C12 19.7167 12.0957 19.4793 12.287 19.288C12.479 19.096 12.7167 19 13 19H19V5H13C12.7167 5 12.479 4.904 12.287 4.712C12.0957 4.52067 12 4.28333 12 4C12 3.71667 12.0957 3.47933 12.287 3.288C12.479 3.096 12.7167 3 13 3H19Z" fill="white"/>
</svg>
